<svg height="480pt" viewBox="0 0 480 480" width="480pt" xmlns="http://www.w3.org/2000/svg"><path d="m432 240c0 106.039062-85.960938 192-192 192s-192-85.960938-192-192 85.960938-192 192-192 192 85.960938 192 192zm0 0" fill="#8690fa"/><path d="m264 128h-112v224h176v-160zm0 0" fill="#cfd2fc"/><path d="m264 128v64h64zm0 0" fill="#5153ff"/><path d="m240 0c-132.546875 0-240 107.453125-240 240s107.453125 240 240 240 240-107.453125 240-240c-.148438-132.484375-107.515625-239.851562-240-240zm0 464c-123.710938 0-224-100.289062-224-224s100.289062-224 224-224 224 100.289062 224 224c-.140625 123.652344-100.347656 223.859375-224 224zm0 0"/><path d="m335.488281 189.441406c-.089843-.257812-.152343-.503906-.265625-.753906-.386718-.871094-.925781-1.664062-1.597656-2.34375l-64-64c-.683594-.671875-1.480469-1.210938-2.351562-1.601562-.234376-.101563-.472657-.167969-.722657-.253907-.6875-.238281-1.40625-.382812-2.136719-.425781-.117187.015625-.253906-.0625-.414062-.0625h-112c-4.417969 0-8 3.582031-8 8v224c0 4.417969 3.582031 8 8 8h176c4.417969 0 8-3.582031 8-8v-160c0-.175781-.089844-.328125-.105469-.503906-.039062-.699219-.175781-1.394532-.40625-2.054688zm-26.800781-5.441406h-36.6875v-36.6875zm-148.6875 160v-208h96v56c0 4.417969 3.582031 8 8 8h56v144zm0 0"/><path d="m280 256h-32v-32c0-4.417969-3.582031-8-8-8s-8 3.582031-8 8v32h-32c-4.417969 0-8 3.582031-8 8s3.582031 8 8 8h32v32c0 4.417969 3.582031 8 8 8s8-3.582031 8-8v-32h32c4.417969 0 8-3.582031 8-8s-3.582031-8-8-8zm0 0"/></svg>